<svg id="wh-logo-white" xmlns="http://www.w3.org/2000/svg" width="113.639" height="32.074" viewBox="0 0 113.639 32.074">
  <path id="Path_37" data-name="Path 37" d="M165.965,50.116h0a6.426,6.426,0,0,1-6.425-6.425V32.449h-4.819V43.692a11.227,11.227,0,0,0,11.243,11.243h1.066v-4.82Z" transform="translate(-143.479 -26.107)" fill="#fff"/>
  <path id="Path_38" data-name="Path 38" d="M142.581,43.692V32.449h-4.819V43.692a11.227,11.227,0,0,0,11.243,11.243V50.117a6.426,6.426,0,0,1-6.425-6.425Z" transform="translate(-137.762 -26.107)" fill="#fff"/>
  <path id="Path_39" data-name="Path 39" d="M196.016,35.736a10.838,10.838,0,0,0-7.956-3.287h-1.416v4.82h1.416a6.426,6.426,0,0,1,6.424,6.424V54.936H199.3V43.692A10.838,10.838,0,0,0,196.016,35.736Z" transform="translate(-154.238 -26.107)" fill="#fff"/>
  <path id="Path_40" data-name="Path 40" d="M176.123,22.882V51.793h4.819V22.882Z" transform="translate(-150.691 -22.883)" fill="#fff"/>
  <g id="Group_10" data-name="Group 10" transform="translate(52.807 2.623)">
    <g id="Group_9" data-name="Group 9" transform="translate(0 0)">
      <path id="Path_41" data-name="Path 41" d="M225.214,26.839l2.227,8.234a11.817,11.817,0,0,1,.242,1.193h.033a7.653,7.653,0,0,1,.21-1.193l2.1-8.234h1.646l-2.986,11.222h-1.857l-1.97-7.28c-.194-.715-.339-1.59-.339-1.59h-.032s-.145.874-.339,1.59l-1.97,7.28h-1.856l-2.906-11.222h1.647l2.017,8.234a10.929,10.929,0,0,1,.21,1.193h.032a11.947,11.947,0,0,1,.243-1.193l2.227-8.234Z" transform="translate(-217.417 -26.839)" fill="#fff"/>
      <path id="Path_42" data-name="Path 42" d="M242.373,31.346a3.445,3.445,0,0,1,3.535,3.767c0,.207-.048.668-.048.668H239.9a2.652,2.652,0,0,0,2.809,2.654,3.924,3.924,0,0,0,2.422-.937l.646,1.128a4.9,4.9,0,0,1-3.164,1.145,4.128,4.128,0,0,1-4.326-4.212A3.971,3.971,0,0,1,242.373,31.346Zm1.937,3.275a1.912,1.912,0,0,0-1.969-2.05,2.329,2.329,0,0,0-2.389,2.05Z" transform="translate(-224.452 -28.358)" fill="#fff"/>
      <path id="Path_43" data-name="Path 43" d="M256.095,34.557h.355v-.143a1.575,1.575,0,0,0-1.791-1.764,4.179,4.179,0,0,0-2.276.778l-.646-1.128a5.173,5.173,0,0,1,3.051-.954,2.881,2.881,0,0,1,3.229,3.148V39.58h-1.453v-.763a5.9,5.9,0,0,1,.033-.636h-.033a2.823,2.823,0,0,1-2.615,1.59,2.541,2.541,0,0,1-2.776-2.448C251.171,34.669,254.722,34.557,256.095,34.557Zm-1.808,3.974a2.449,2.449,0,0,0,2.179-2.56v-.255h-.4c-1.178,0-3.309.08-3.309,1.526A1.361,1.361,0,0,0,254.287,38.532Z" transform="translate(-228.794 -28.358)" fill="#fff"/>
      <path id="Path_44" data-name="Path 44" d="M263.908,26.839h1.566V35.6c0,.969.387,1.144.872,1.144a2.533,2.533,0,0,0,.274-.016v1.367a4.462,4.462,0,0,1-.517.032c-.888,0-2.195-.239-2.195-2.257Z" transform="translate(-233.087 -26.839)" fill="#fff"/>
      <path id="Path_45" data-name="Path 45" d="M269.99,31.862h-1.065v-1.24h1.114V28.3h1.517v2.321h1.97v1.24h-1.97v3.577a1.612,1.612,0,0,0,1.743,1.812,1.91,1.91,0,0,0,.371-.032v1.367a4.356,4.356,0,0,1-.549.032,2.8,2.8,0,0,1-3.132-3Z" transform="translate(-234.779 -27.332)" fill="#fff"/>
      <path id="Path_46" data-name="Path 46" d="M278.252,26.839h1.565v4.116a6.572,6.572,0,0,1-.033.668h.033a3.3,3.3,0,0,1,3.019-1.8c1.921,0,2.809,1.034,2.809,3.084v5.15h-1.566v-4.8c0-1.128-.243-2.019-1.55-2.019a2.7,2.7,0,0,0-2.583,1.987,3.71,3.71,0,0,0-.129,1.065v3.767h-1.565Z" transform="translate(-237.922 -26.839)" fill="#fff"/>
      <path id="Path_47" data-name="Path 47" d="M218.951,49.3h1.6v4.928h5.909V49.3h1.6V60.521h-1.6V55.593h-5.909v4.928h-1.6Z" transform="translate(-217.934 -34.409)" fill="#fff"/>
      <path id="Path_48" data-name="Path 48" d="M238.92,53.806a4.217,4.217,0,1,1-4.407,4.2A4.232,4.232,0,0,1,238.92,53.806Zm0,7.089A2.878,2.878,0,1,0,236.111,58,2.8,2.8,0,0,0,238.92,60.9Z" transform="translate(-223.179 -35.929)" fill="#fff"/>
      <path id="Path_49" data-name="Path 49" d="M249.491,49.3h1.566v8.759c0,.97.387,1.145.872,1.145a2.432,2.432,0,0,0,.274-.017v1.367a4.464,4.464,0,0,1-.517.032c-.888,0-2.195-.239-2.195-2.257Z" transform="translate(-228.228 -34.409)" fill="#fff"/>
      <path id="Path_50" data-name="Path 50" d="M258.009,52.287a2.725,2.725,0,0,1,2.519,1.272h.032a4.467,4.467,0,0,1-.032-.541V49.3h1.565V60.521h-1.485v-.763c0-.318.017-.541.017-.541h-.033a2.862,2.862,0,0,1-2.68,1.494c-2.212,0-3.6-1.716-3.6-4.212C254.312,53.939,255.846,52.287,258.009,52.287Zm.21,7.089c1.211,0,2.357-.843,2.357-2.893,0-1.431-.758-2.861-2.308-2.861-1.291,0-2.357,1.049-2.357,2.877C255.91,58.247,256.863,59.376,258.219,59.376Z" transform="translate(-229.853 -34.409)" fill="#fff"/>
      <path id="Path_51" data-name="Path 51" d="M268.754,49.3h1.582v1.574h-1.582Zm.017,3.179h1.565v8.044h-1.565Z" transform="translate(-234.721 -34.409)" fill="#fff"/>
      <path id="Path_52" data-name="Path 52" d="M273.868,54h1.517v1.065a5.625,5.625,0,0,1-.032.588h.032a3.329,3.329,0,0,1,3.068-1.844c1.921,0,2.809,1.033,2.809,3.083V62.04H279.7v-4.8c0-1.128-.242-2.019-1.549-2.019a2.669,2.669,0,0,0-2.583,1.972,3.758,3.758,0,0,0-.129,1.081V62.04h-1.566Z" transform="translate(-236.445 -35.929)" fill="#fff"/>
      <path id="Path_53" data-name="Path 53" d="M290.278,64.043c1.421,0,2.583-.621,2.583-2.257V61.2c0-.255.016-.509.016-.509h-.032a2.6,2.6,0,0,1-2.422,1.256c-2.276,0-3.648-1.8-3.648-4.117,0-2.305,1.308-4.021,3.568-4.021A2.734,2.734,0,0,1,292.909,55h.032a1.993,1.993,0,0,1-.016-.255V54h1.5v7.71c0,2.654-2.05,3.672-4.117,3.672a6.454,6.454,0,0,1-2.793-.668l.516-1.208A5.33,5.33,0,0,0,290.278,64.043Zm2.615-6.2c0-2.1-1.033-2.7-2.308-2.7-1.421,0-2.228,1.017-2.228,2.654,0,1.669.9,2.814,2.374,2.814C291.86,60.61,292.893,59.941,292.893,57.843Z" transform="translate(-240.795 -35.929)" fill="#fff"/>
      <path id="Path_54" data-name="Path 54" d="M300.806,59.957a3.528,3.528,0,0,0,2.341.938c.677,0,1.356-.349,1.356-1,0-1.478-4.2-1.176-4.2-3.8,0-1.462,1.324-2.288,2.954-2.288a3.7,3.7,0,0,1,2.631.89l-.63,1.16a3.011,3.011,0,0,0-2.017-.715c-.678,0-1.34.286-1.34.986,0,1.446,4.2,1.128,4.2,3.767,0,1.336-1.163,2.337-2.954,2.337a4.424,4.424,0,0,1-3.1-1.176Z" transform="translate(-245.269 -35.929)" fill="#fff"/>
    </g>
  </g>
</svg>
