<svg id="Layer_1" data-name="Layer 1" xmlns="http://www.w3.org/2000/svg" viewBox="0 0 171.417 48.38"><defs><style>.cls-1{fill:#57ab6e;}.cls-2{fill:#29434e;}</style></defs><path id="Path_37" data-name="Path 37" class="cls-1" d="M33.92,36.218h0a9.693,9.693,0,0,1-9.691-9.691V9.567H16.96v16.96A16.935,16.935,0,0,0,33.87,43.487q.025,0,.05,0h1.608V36.218Z"/><path id="Path_38" data-name="Path 38" class="cls-1" d="M7.269,26.527V9.567H0v16.96a16.935,16.935,0,0,0,16.91,16.96q.025,0,.05,0V36.218a9.693,9.693,0,0,1-9.691-9.691Z"/><path id="Path_39" data-name="Path 39" class="cls-1" d="M63.019,14.526a16.348,16.348,0,0,0-12-4.959H48.883v7.27h2.136a9.693,9.693,0,0,1,9.691,9.691v16.96h7.269V26.527A16.34808,16.34808,0,0,0,63.019,14.526Z"/><path id="Path_40" data-name="Path 40" class="cls-1" d="M38.361,0V43.611h7.268V0Z"/><g id="Group_10" data-name="Group 10"><g id="Group_9" data-name="Group 9"><path id="Path_41" data-name="Path 41" class="cls-2" d="M91.417,3.957l3.36,12.42a17.84059,17.84059,0,0,1,.365,1.8h.049a11.5395,11.5395,0,0,1,.317-1.8l3.166-12.42h2.483l-4.5,16.928h-2.8L90.886,9.903c-.292-1.079-.511-2.4-.511-2.4h-.049s-.219,1.319-.511,2.4L86.838,20.885h-2.8L79.654,3.957h2.484l3.043,12.42a16.47841,16.47841,0,0,1,.317,1.8h.048a18.02011,18.02011,0,0,1,.366-1.8l3.36-12.42Z"/><path id="Path_42" data-name="Path 42" class="cls-2" d="M106.687,8.464c3.482,0,5.333,2.542,5.333,5.683,0,.312-.073,1.007-.073,1.007h-8.986a4,4,0,0,0,3.993,4.007q.12209.00021.244-.007a5.919,5.919,0,0,0,3.653-1.414l.974,1.7a7.39,7.39,0,0,1-4.773,1.727,6.227,6.227,0,0,1-6.51925-5.92036q-.01041-.21664-.00575-.43364a5.99,5.99,0,0,1,5.61734-6.3408Q106.41539,8.45581,106.687,8.464Zm2.922,4.94a2.883,2.883,0,0,0-2.97-3.093,3.512,3.512,0,0,0-3.6,3.093Z"/><path id="Path_43" data-name="Path 43" class="cls-2" d="M120.838,13.308h.535v-.216a2.376,2.376,0,0,0-2.7-2.661,6.30006,6.30006,0,0,0-3.435,1.174l-.975-1.7a7.8,7.8,0,0,1,4.6-1.439c3.117,0,4.871,1.679,4.871,4.748v7.673h-2.196V19.734a8.891,8.891,0,0,1,.049-.959h-.049a4.259,4.259,0,0,1-3.945,2.4c-2.118,0-4.188-1.271-4.188-3.693C113.409,13.476,118.766,13.308,120.838,13.308Zm-2.727,6c2,0,3.287-2.063,3.287-3.861v-.389h-.609c-1.777,0-4.992.12-4.992,2.3a2.054,2.054,0,0,0,2.14438,1.95946q.08406-.0038.16763-.01446Z"/><path id="Path_44" data-name="Path 44" class="cls-2" d="M126.146,3.957h2.362V17.169c0,1.462.584,1.726,1.315,1.726a3.82025,3.82025,0,0,0,.414-.024v2.062a6.72681,6.72681,0,0,1-.78.048c-1.339,0-3.311-.36-3.311-3.4Z"/><path id="Path_45" data-name="Path 45" class="cls-2" d="M132.77,10.79h-1.607V8.918h1.68v-3.5h2.289v3.5h2.971v1.87h-2.971v5.4a2.432,2.432,0,0,0,2.63,2.734,2.88149,2.88149,0,0,0,.56-.048v2.062a6.57144,6.57144,0,0,1-.828.048c-1.583,0-4.724-.48-4.724-4.532Z"/><path id="Path_46" data-name="Path 46" class="cls-2" d="M140.49,3.957h2.361v6.209a9.93,9.93,0,0,1-.049,1.008h.049a4.981,4.981,0,0,1,4.554-2.71c2.9,0,4.237,1.559,4.237,4.652v7.769H149.28V13.643c0-1.7-.366-3.045-2.338-3.045a4.068,4.068,0,0,0-3.9,3,5.60033,5.60033,0,0,0-.2,1.606v5.683h-2.361Z"/><path id="Path_47" data-name="Path 47" class="cls-2" d="M81.189,26.418H83.6v7.433h8.913V26.418h2.41V43.345h-2.41V35.911H83.6v7.434H81.189Z"/><path id="Path_48" data-name="Path 48" class="cls-2" d="M103.399,30.924a6.38312,6.38312,0,1,1-.21769-.00533Q103.29021,30.91947,103.399,30.924Zm-.38975,10.694a4.341,4.341,0,1,0-4.23583-4.44369l-.00117.07969a4.222,4.222,0,0,0,4.07757,4.36164Q102.92951,41.61834,103.00926,41.618Z"/><path id="Path_49" data-name="Path 49" class="cls-2" d="M111.729,26.418h2.362v13.21c0,1.463.584,1.727,1.315,1.727a3.66946,3.66946,0,0,0,.414-.025v2.062a6.73137,6.73137,0,0,1-.78.048c-1.339,0-3.311-.36-3.311-3.4Z"/><path id="Path_50" data-name="Path 50" class="cls-2" d="M122.127,30.924a4.11,4.11,0,0,1,3.8,1.918h.049a6.732,6.732,0,0,1-.049-.816V26.418h2.361V43.345h-2.24V42.194c0-.48.025-.816.025-.816h-.049a4.316,4.316,0,0,1-4.042,2.254c-3.336,0-5.431-2.589-5.431-6.354C116.55,33.418,118.864,30.924,122.127,30.924Zm.311,10.694c1.827,0,3.555-1.271,3.555-4.364,0-2.158-1.144-4.316-3.482-4.316-1.947,0-3.555,1.583-3.555,4.34C118.961,39.918,120.398,41.618,122.438,41.618Z"/><path id="Path_51" data-name="Path 51" class="cls-2" d="M130.992,26.418h2.386v2.374h-2.386Zm.025,4.795h2.361V43.345h-2.361Z"/><path id="Path_52" data-name="Path 52" class="cls-2" d="M136.106,31.211h2.288v1.607a8.49169,8.49169,0,0,1-.048.887h.048a5.022,5.022,0,0,1,4.628-2.781c2.9,0,4.237,1.558,4.237,4.651v7.77h-2.363V36.103c0-1.7-.365-3.046-2.337-3.046a4.026,4.026,0,0,0-3.9,2.974,5.66648,5.66648,0,0,0-.194,1.63v5.684h-2.362Z"/><path id="Path_53" data-name="Path 53" class="cls-2" d="M154.297,46.366c2.143,0,3.9-.936,3.9-3.4v-.887c0-.384.024-.768.024-.768h-.049a3.925,3.925,0,0,1-3.653,1.895c-3.433,0-5.5-2.71-5.5-6.211,0-3.477,1.973-6.066,5.382-6.066,2.971,0,3.871,1.8,3.871,1.8h.049a2.997,2.997,0,0,1-.024-.384V31.211h2.265v11.63c0,4-3.093,5.539-6.21,5.539a9.7351,9.7351,0,0,1-4.213-1.007l.779-1.822A8.03992,8.03992,0,0,0,154.297,46.366Zm3.941-9.348c0-3.165-1.558-4.076-3.482-4.076-2.143,0-3.361,1.534-3.361,4,0,2.518,1.364,4.245,3.581,4.245C156.684,41.187,158.238,40.179,158.238,37.018Z"/><path id="Path_54" data-name="Path 54" class="cls-2" d="M163.43,40.203a5.322,5.322,0,0,0,3.531,1.415c1.022,0,2.045-.527,2.045-1.511,0-2.229-6.331-1.774-6.331-5.731,0-2.2,2-3.452,4.456-3.452a5.582,5.582,0,0,1,3.969,1.343l-.95,1.75a4.541,4.541,0,0,0-3.043-1.079c-1.023,0-2.021.431-2.021,1.487,0,2.181,6.331,1.7,6.331,5.682,0,2.015-1.754,3.525-4.456,3.525a6.673,6.673,0,0,1-4.676-1.774Z"/></g></g></svg>